<?xml version="1.0" encoding="UTF-8"?>
<svg width="92px" height="127px" viewBox="0 0 92 127" version="1.1" xmlns="http://www.w3.org/2000/svg" xmlns:xlink="http://www.w3.org/1999/xlink">
    <!-- Generator: Sketch 49.3 (51167) - http://www.bohemiancoding.com/sketch -->
    <title>pin-5mai</title>
    <desc>Created with Sketch.</desc>
    <defs></defs>
    <g id="Page-1" stroke="none" stroke-width="1" fill="none" fill-rule="evenodd">
        <g id="pin-5mai" fill-rule="nonzero">
            <path d="M45.977003,126.64334 C45.693972,125.95584 39.813862,120.20567 35.603071,114.98067 C10.655836,81.858372 -17.158365,51.082905 15.319943,13.682837 C29.700637,-0.21083367 47.43303,-1.0034227 65.662563,5.4726973 C116.9922,35.174601 79.828906,83.627914 55.427079,115.48067 L45.977003,126.64334 Z M61.417383,75.872046 C95.654166,51.387445 69.185413,4.2391813 31.569429,19.913013 C20.585178,25.769872 15.134954,35.960547 14.944071,47.980664 C14.419576,59.673817 20.629489,69.451701 30.470298,75.441472 C37.525779,79.281546 40.627476,79.975133 48.615995,79.499126 C53.793617,79.19061 56.777122,78.345279 61.417383,75.872046 Z" id="path4127" fill-opacity="0.98823529" fill="#FF4879"></path>
            <path d="M36.163922,87.5616885 C11.9726721,82.5260815 -3.517166,59.369047 1.48702011,35.7203322 C6.49120622,12.0716175 30.1122073,-3.19748733 54.3670522,1.53758309 C78.6218972,6.27265351 94.4119197,29.2356426 89.7159731,52.9445324 C85.0200266,76.6534222 61.599691,92.2143491 37.2851682,87.7805801 L36.163922,87.5616885 Z M41.0165068,69.4246327 L41.56744,69.5372131 C53.5145723,71.8175898 65.0223262,63.8142234 67.329701,51.6201795 C69.6370759,39.4261355 61.8785114,27.6157387 49.9607021,25.1803956 C38.0428928,22.7450524 26.4365402,30.5983278 23.9777094,42.7614226 C21.5188785,54.9245173 29.1299452,66.8347164 41.0165068,69.4246327 Z" id="Combined-Shape" fill-opacity="0.98823529" fill="#FF4879"></path>
            <path d="M39.106324,81.3814713 C21.1324367,77.431447 9.62362098,59.2666291 13.3416858,40.7161266 C17.0597507,22.1656241 34.6099466,10.1882459 52.6310844,13.9025236 C70.6522223,17.6168014 82.3840723,35.6294062 78.8950268,54.2271111 C75.4059812,72.8248161 58.0048779,85.0311051 39.9394,81.5531739 L39.106324,81.3814713 Z M41.0165068,69.4246327 L41.56744,69.5372131 C53.5145723,71.8175898 65.0223262,63.8142234 67.329701,51.6201795 C69.6370759,39.4261355 61.8785114,27.6157387 49.9607021,25.1803956 C38.0428928,22.7450524 26.4365402,30.5983278 23.9777094,42.7614226 C21.5188785,54.9245173 29.1299452,66.8347164 41.0165068,69.4246327 Z" id="Combined-Shape" fill="#EF275C"></path>
        </g>
    </g>
</svg>